<?xml version="1.0" encoding="UTF-8"?>
<!-- Created with Inkscape (http://www.inkscape.org/) -->
<svg width="179.81" height="144" version="1.1" viewBox="0 0 47.575388 38.099993" xmlns="http://www.w3.org/2000/svg" xmlns:cc="http://creativecommons.org/ns#" xmlns:dc="http://purl.org/dc/elements/1.1/" xmlns:rdf="http://www.w3.org/1999/02/22-rdf-syntax-ns#"><metadata><rdf:RDF><cc:Work rdf:about=""><dc:format>image/svg+xml</dc:format><dc:type rdf:resource="http://purl.org/dc/dcmitype/StillImage"/><dc:title/></cc:Work></rdf:RDF></metadata><g transform="translate(-41.601 -203.34)"><g fill="#fff" aria-label="ÿ"><path d="m43.288 206.34v1.4635l-1.6867 0.69453v-1.4387zm-0.17363 4.7377v1.3146l-1.3643 0.62011v-1.2898zm0 4.7625v1.2898l-1.3643 0.62012v-1.2898zm0.17363 4.6881v1.4635l-1.6867 0.69453v-1.4139zm-0.17363 4.9361v1.265l-1.3643 0.62011v-1.2898zm0 4.8121v1.2898l-1.3643 0.62012v-1.265zm0.17363 4.6385v1.4883l-1.6867 0.69453v-1.4139zm4.2664-27.756v1.7115l-2.282 0.86816v-1.6867zm-0.12402 4.9609v1.5627l-1.8355 0.71934v-1.5627zm0 4.7873v1.5379l-1.8355 0.71934v-1.5875zm0.12402 4.6137v1.6867l-2.282 0.89297v-1.6867zm-0.12402 4.9609v1.5379l-1.8355 0.74414v-1.5875zm0 4.8369v1.5379l-1.8355 0.74414v-1.5627zm0.12402 4.6385v1.6867l-2.282 0.94258v-1.6867zm4.2664-27.732v2.034l-2.9518 1.1658v-2.0092zm-0.14883 4.9857v1.8107l-2.4805 0.96739v-1.7611zm0 4.7873v1.7859l-2.4805 0.99219v-1.7859zm0.14883 4.5889v2.034l-2.9518 1.1658v-2.0092zm-0.14883 4.9857v1.7859l-2.4805 1.017v-1.7859zm0 4.6385v1.8356l-2.4805 0.99219v-1.7859zm0.14883 4.6385v2.034l-2.9518 1.1906v-2.034zm4.6633-28.749v2.6789l-3.6959 1.4883v-2.6541zm-0.19844 4.9857v2.4557l-3.1006 1.265v-2.4557zm0 4.7873v2.4309l-3.1006 1.265v-2.4557zm0.19844 4.6137v2.6789l-3.6959 1.4635v-2.6789zm-0.19844 4.9858v2.4557l-3.1006 1.2402v-2.4557zm0 4.6385v2.4557l-3.1006 1.2402v-2.4309zm0.19844 4.6137v2.6789l-3.6959 1.4883v-2.6541zm4.8865-29.071v3.4975l-4.1176 1.6867v-3.4975zm-0.19844 5.2586v2.927l-3.5223 1.4139v-2.9518zm0 4.5641v2.9518l-3.5223 1.3891v-2.927zm0.19844 4.5392v3.4975l-4.1176 1.6619v-3.4975zm-0.19844 5.2338v2.9766l-3.5223 1.3642v-2.927zm0 4.6633v2.9518l-3.5223 1.4139v-2.9518zm0.19844 4.3656v3.4975l-4.1176 1.6619v-3.4975zm4.9857-30.386v4.7873l-4.3904 1.8356v-4.4648q2.282-1.3146 4.3904-2.158zm0 5.2834v4.1424l-4.3904 1.8604v-4.1672zm0 4.6633v4.192l-4.3904 1.8604v-4.192zm0 4.7129v4.1424l-4.3904 1.8604v-4.1672zm0 4.6633v4.2664l-4.3904 1.8852v-4.2912zm0 4.7873v4.1672l-4.3904 1.91v-4.2168zm0 4.6881v4.4648q-2.5797 0.99219-4.3904 1.91v-4.4896zm22.82-28.625v33.511q-4.2416-2.7781-10.592-2.7781-5.2586 0-11.757 2.1828v-4.4648q3.4479-1.3643 7.5902-1.9596v-10.914q-3.4975 0.44649-7.5902 2.4309v-3.1998q3.5471-1.6371 7.5902-2.2324v-10.592q-3.6463 0.69453-7.5902 2.3564v-4.7129q5.7795-2.3564 11.336-2.3564 5.9779 0 11.013 2.7285zm-4.3904 3.0014q-2.7533-1.3891-6.598-1.3891-0.44648 0-0.89297 0.0496v10.716l0.99219-0.0248q3.299 0 6.4988 1.0418zm0 13.568q-2.9518-1.2898-6.5484-1.2898-0.44648 0-0.94258 0.0496v10.914h0.99219q3.5967 0 6.4988 0.89297zm2.8773 18.306v-0.71933h-0.29766v-0.12403h0.71934v0.12403h-0.29766v0.71933zm0.5209 0v-0.84336h0.19844l0.29766 0.64492 0.29766-0.64492h0.19844v0.84336h-0.12402v-0.69453l-0.29766 0.64492h-0.14883l-0.29766-0.64492v0.69453z" fill="#fff" stroke-width=".26458"/></g></g></svg>
