<?xml version="1.0" encoding="UTF-8" standalone="no"?>
<!-- Created with Inkscape (http://www.inkscape.org/) -->

<svg
   xmlns:dc="http://purl.org/dc/elements/1.1/"
   xmlns:cc="http://creativecommons.org/ns#"
   xmlns:rdf="http://www.w3.org/1999/02/22-rdf-syntax-ns#"
   xmlns:svg="http://www.w3.org/2000/svg"
   xmlns="http://www.w3.org/2000/svg"
   xmlns:sodipodi="http://sodipodi.sourceforge.net/DTD/sodipodi-0.dtd"
   xmlns:inkscape="http://www.inkscape.org/namespaces/inkscape"
   width="1024"
   height="1024"
   viewBox="0 0 270.93333 270.93334"
   version="1.1"
   id="svg8"
   sodipodi:docname="windowslogo.svg"
   inkscape:version="0.92.1 r15371">
  <defs
     id="defs2">
    <filter
       style="color-interpolation-filters:sRGB;"
       inkscape:label="Colorize"
       id="filter3725">
      <feColorMatrix
         type="hueRotate"
         values="180"
         result="color1"
         id="feColorMatrix3721" />
      <feColorMatrix
         values="-1 0 0 0 1 0 -1 0 0 1 0 0 -1 0 1 -0.21 -0.72 -0.07 2 0 "
         result="fbSourceGraphic"
         id="feColorMatrix3723" />
      <feColorMatrix
         result="fbSourceGraphicAlpha"
         in="fbSourceGraphic"
         values="0 0 0 -1 0 0 0 0 -1 0 0 0 0 -1 0 0 0 0 1 0"
         id="feColorMatrix3682" />
      <feComposite
         in2="fbSourceGraphic"
         id="feComposite3684"
         operator="arithmetic"
         k1="0"
         k2="1"
         result="composite1"
         in="fbSourceGraphic" />
      <feColorMatrix
         id="feColorMatrix3686"
         in="composite1"
         values="1"
         type="saturate"
         result="colormatrix1" />
      <feFlood
         id="feFlood3688"
         flood-opacity="1"
         flood-color="rgb(255,0,0)"
         result="flood1" />
      <feBlend
         in2="colormatrix1"
         id="feBlend3690"
         in="flood1"
         mode="multiply"
         result="blend1" />
      <feBlend
         in2="blend1"
         id="feBlend3692"
         mode="screen"
         result="blend2" />
      <feColorMatrix
         id="feColorMatrix3694"
         in="blend2"
         values="1"
         type="saturate"
         result="colormatrix2" />
      <feComposite
         in2="fbSourceGraphic"
         id="feComposite3696"
         in="colormatrix2"
         operator="in"
         result="composite2"
         k2="1" />
    </filter>
  </defs>
  <sodipodi:namedview
     id="base"
     pagecolor="#ffffff"
     bordercolor="#666666"
     borderopacity="1.0"
     inkscape:pageopacity="0"
     inkscape:pageshadow="2"
     inkscape:zoom="0.55217053"
     inkscape:cx="297.34224"
     inkscape:cy="493.12396"
     inkscape:document-units="mm"
     inkscape:current-layer="text3682"
     showgrid="false"
     units="px"
     inkscape:window-width="2560"
     inkscape:window-height="1057"
     inkscape:window-x="1352"
     inkscape:window-y="-8"
     inkscape:window-maximized="1"
     inkscape:pagecheckerboard="true" />
  <metadata
     id="metadata5">
    <rdf:RDF>
      <cc:Work
         rdf:about="">
        <dc:format>image/svg+xml</dc:format>
        <dc:type
           rdf:resource="http://purl.org/dc/dcmitype/StillImage" />
        <dc:title></dc:title>
      </cc:Work>
    </rdf:RDF>
  </metadata>
  <g
     inkscape:label="Camada 1"
     inkscape:groupmode="layer"
     id="layer1"
     transform="translate(0,-26.06665)">
    <g
       aria-label="ÿ"
       transform="scale(0.91309915,1.0951713)"
       style="font-style:normal;font-weight:normal;font-size:58.47234726px;line-height:1.25;font-family:sans-serif;letter-spacing:0px;word-spacing:0px;fill:#000000;fill-opacity:1;stroke:none;stroke-width:1.46180856"
       id="text3682">
      <path
         d="m 24.914629,59.213137 v 8.085629 l -9.319031,3.837248 V 63.18743 Z m -0.959312,26.175512 v 7.263362 l -7.537451,3.426114 v -7.126317 z m 0,26.312561 v 7.12631 l -7.537451,3.42612 v -7.12632 z m 0.959312,25.90142 v 8.08563 l -9.319031,3.83724 v -7.81154 z m -0.959312,27.27187 v 6.98927 l -7.537451,3.42611 v -7.12631 z m 0,26.58664 v 7.12632 l -7.537451,3.42611 v -6.98927 z m 0.959312,25.62733 v 8.22268 l -9.319031,3.83725 v -7.81154 z M 48.486293,63.735608 v 9.456075 l -12.608099,4.796559 v -9.31903 z m -0.685222,27.408913 v 8.633807 l -10.141298,3.974292 v -8.633807 z m 0,26.449599 v 8.49676 l -10.141298,3.9743 v -8.77086 z m 0.685222,25.49029 v 9.31903 l -12.608099,4.9336 v -9.31903 z m -0.685222,27.40891 v 8.49677 l -10.141298,4.11133 v -8.77085 z m 0,26.72369 v 8.49677 l -10.141298,4.11133 v -8.6338 z m 0.685222,25.62734 v 9.31903 l -12.608099,5.20769 v -9.31903 z M 72.057958,69.628524 v 11.237654 l -16.308303,6.441095 v -11.10061 z m -0.822267,27.545957 v 10.004249 l -13.704456,5.34474 v -9.73016 z m 0,26.449599 v 9.86721 l -13.704456,5.48178 v -9.86721 z m 0.822267,25.35325 v 11.23765 l -16.308303,6.4411 v -11.10061 z m -0.822267,27.54595 v 9.86721 l -13.704456,5.61883 v -9.86721 z m 0,25.62734 v 10.1413 l -13.704456,5.48178 v -9.86721 z m 0.822267,25.62733 v 11.23765 l -16.308303,6.57814 V 234.35609 Z M 97.822336,68.943301 v 14.800813 l -20.41964,8.222674 V 77.30302 Z M 96.72598,96.489259 v 13.567411 l -17.130571,6.98927 v -13.56741 z m 0,26.449601 v 13.43037 l -17.130571,6.98927 v -13.56741 z m 1.096356,25.49029 v 14.80081 l -20.41964,8.08563 v -14.80081 z m -1.096356,27.54596 v 13.56741 l -17.130571,6.85223 v -13.56742 z m 0,25.62733 v 13.56741 l -17.130571,6.85223 v -13.43037 z m 1.096356,25.49029 v 14.80081 l -20.41964,8.22267 V 235.45245 Z M 124.82012,66.476499 v 19.323284 l -22.7494,9.31903 V 75.795529 Z m -1.09636,29.053448 v 16.171263 l -19.46033,7.81154 v -16.30831 z m 0,25.216203 v 16.3083 l -19.46033,7.6745 v -16.17126 z m 1.09636,25.07915 v 19.32329 l -22.7494,9.18198 v -19.32328 z m -1.09636,28.9164 v 16.44535 l -19.46033,7.53745 v -16.17126 z m 0,25.76438 v 16.30831 l -19.46033,7.81154 v -16.30831 z m 1.09636,24.11985 v 19.32328 l -22.7494,9.18199 V 233.80791 Z M 152.36607,56.746335 V 83.195936 L 128.10919,93.337234 V 68.669212 q 12.60809,-7.263362 24.25688,-11.922877 z m 0,29.190492 v 22.886443 l -24.25688,10.27834 V 96.078125 Z m 0,25.764383 v 23.16053 l -24.25688,10.27834 v -23.16053 z m 0,26.03846 v 22.88644 l -24.25688,10.27835 v -23.02349 z m 0,25.76438 v 23.57167 l -24.25688,10.41538 v -23.70871 z m 0,26.4496 v 23.02349 l -24.25688,10.55243 v -23.29758 z m 0,25.90142 v 24.66803 q -14.25263,5.48178 -24.25688,10.55243 V 226.27046 Z M 278.44707,57.705647 V 242.85285 q -23.43462,-15.34899 -58.51803,-15.34899 -29.05344,0 -64.95912,12.05992 v -24.66802 q 19.04919,-7.53745 41.93564,-10.82652 V 143.76963 Q 177.58227,146.23644 154.96992,157.2 v -17.67875 q 19.59737,-9.04494 41.93564,-12.33401 V 68.669212 Q 176.76001,72.50646 154.96992,81.688446 V 55.649979 q 31.93138,-13.019234 62.62937,-13.019234 33.02774,0 60.84778,15.074902 z m -24.25689,16.582392 q -15.21194,-7.674495 -36.45385,-7.674495 -2.4668,0 -4.9336,0.274089 v 59.203247 l 5.48178,-0.13704 q 18.22693,0 35.90567,5.75587 z m 0,74.963381 q -16.3083,-7.12632 -36.17976,-7.12632 -2.4668,0 -5.20769,0.27409 v 60.29961 h 5.48178 q 19.87146,0 35.90567,4.9336 z m 15.89717,101.13888 v -3.97429 h -1.64453 v -0.68522 h 3.97429 v 0.68522 h -1.64453 v 3.97429 z m 2.87794,0 v -4.65951 h 1.09636 l 1.64453,3.56316 1.64454,-3.56316 h 1.09635 v 4.65951 h -0.68522 v -3.83724 l -1.64454,3.56315 h -0.82226 l -1.64454,-3.56315 v 3.83724 z"
         style="font-style:normal;font-variant:normal;font-weight:normal;font-stretch:normal;font-size:280.66726685px;font-family:Wingdings;-inkscape-font-specification:Wingdings;stroke-width:1.46180856;filter:url(#filter3725)"
         id="path3684" />
    </g>
  </g>
</svg>
